<?xml version="1.0" standalone="no"?>
<!DOCTYPE svg PUBLIC "-//W3C//DTD SVG 20010904//EN"
 "http://www.w3.org/TR/2001/REC-SVG-20010904/DTD/svg10.dtd">
<svg version="1.0" xmlns="http://www.w3.org/2000/svg"
 width="750.000000pt" height="752.000000pt" viewBox="0 0 750.000000 752.000000"
 preserveAspectRatio="xMidYMid meet">

<g transform="translate(0.000000,752.000000) scale(0.100000,-0.100000)"
fill="#000000" stroke="none">
<path d="M0 3760 l0 -3760 3750 0 3750 0 0 3760 0 3760 -3750 0 -3750 0 0
-3760z m2951 2359 c35 -25 151 -162 202 -239 33 -48 47 -90 32 -90 -13 0 -96
47 -165 93 -185 124 -234 193 -179 248 25 25 64 21 110 -12z m901 -306 c26
-27 73 -121 97 -195 7 -21 16 -40 20 -42 4 -3 39 -10 77 -16 200 -31 268 -102
198 -206 -30 -44 -39 -51 -111 -100 -36 -23 -53 -41 -53 -55 0 -12 12 -60 26
-107 43 -141 23 -232 -51 -232 -39 0 -146 87 -219 179 -27 33 -54 61 -61 61
-6 0 -45 -36 -87 -79 -113 -119 -201 -153 -247 -95 -30 38 -27 100 10 228 16
59 29 117 27 129 -2 14 -19 31 -47 46 -24 13 -70 49 -103 80 -93 88 -91 154 5
200 47 23 140 27 247 12 33 -5 60 -5 67 1 6 5 22 44 34 85 29 98 58 133 108
133 28 0 44 -7 63 -27z m-1005 -65 c258 -130 267 -170 26 -129 -205 35 -283
71 -283 129 0 83 91 83 257 0z m2118 -82 c64 -27 53 -103 -17 -124 -59 -18
-160 -23 -282 -13 -126 11 -155 22 -121 47 38 28 294 101 363 103 12 1 38 -5
57 -13z m-2020 -266 c83 -15 95 -20 95 -34 0 -7 -11 -18 -24 -24 -48 -22 -263
-64 -333 -66 -63 -1 -74 2 -97 23 -14 14 -26 34 -26 46 0 24 34 60 65 69 30 8
252 -2 320 -14z m1873 -96 c51 -8 108 -21 127 -28 89 -38 77 -136 -16 -136
-89 0 -389 132 -389 171 0 20 118 17 278 -7z m-295 -224 c177 -91 277 -173
277 -225 0 -31 -33 -65 -63 -65 -51 0 -162 96 -276 239 -81 103 -65 116 62 51z
m-1509 -414 c156 -47 237 -237 163 -382 -88 -172 -308 -205 -438 -67 -60 63
-74 98 -74 188 0 96 21 142 91 204 74 65 164 85 258 57z m574 -73 c28 -68 34
-127 22 -217 -15 -103 -37 -173 -125 -396 -41 -102 -85 -223 -98 -270 -79
-273 -50 -577 89 -923 47 -115 53 -157 29 -177 -12 -10 -23 -7 -57 13 -70 40
-148 132 -260 302 -161 244 -276 341 -420 352 -123 9 -367 -93 -758 -317 -270
-156 -316 -173 -343 -129 -27 44 63 146 343 391 85 74 174 156 198 181 176
193 219 429 107 593 -64 93 -182 165 -306 185 -127 21 -134 23 -137 46 -6 40
129 111 239 127 66 10 164 -9 235 -44 34 -16 110 -66 170 -110 170 -126 319
-190 437 -190 142 1 322 105 422 244 58 81 90 152 115 254 28 114 36 132 59
132 13 0 25 -15 39 -47z m1113 -215 c213 -109 205 -409 -15 -509 -61 -28 -167
-26 -231 5 -143 66 -203 242 -131 384 49 96 138 150 252 151 50 1 72 -5 125
-31z m-746 -32 c9 -13 27 -65 40 -115 72 -269 264 -462 502 -503 140 -24 290
31 479 173 210 159 275 189 405 189 110 0 240 -46 287 -102 16 -20 5 -47 -22
-52 -11 -3 -58 -11 -103 -19 -354 -65 -488 -387 -288 -697 54 -85 126 -157
315 -315 183 -153 311 -277 335 -324 14 -27 15 -39 6 -59 -22 -46 -82 -23
-401 154 -307 171 -563 279 -691 291 -115 11 -246 -56 -349 -179 -30 -36 -93
-128 -140 -203 -99 -158 -169 -247 -233 -292 -55 -40 -84 -42 -97 -8 -8 21 -2
46 29 128 144 378 174 670 101 951 -20 75 -43 134 -160 416 -67 161 -100 290
-100 390 0 80 18 150 47 182 20 23 19 23 38 -6z m650 -2216 c1062 -26 1544
-67 1533 -128 -10 -53 -374 -112 -878 -142 -1080 -64 -3774 18 -3807 116 -10
31 268 64 867 103 897 59 1463 71 2285 51z"/>
</g>
</svg>
